<?xml version="1.0" encoding="UTF-8"?>
<svg id="Layer_1" data-name="Layer 1" xmlns="http://www.w3.org/2000/svg" viewBox="0 0 113 32">
  <defs>
    <style>
      .cls-1 {
        fill: #fff;
      }
    </style>
  </defs>
  <path class="cls-1" d="m20.2,10.76h-.15l-2.07,4.25-5.47,10.1-5.47-10.1-2.07-4.25h-.15v19.17H.03V3.22h5.7l6.85,13.05h.15l6.77-13.05h5.47v26.71h-4.78V10.76Z"/>
  <path class="cls-1" d="m39.03,30.39c-1.48,0-2.8-.25-3.96-.74-1.16-.5-2.14-1.2-2.95-2.11s-1.42-2-1.86-3.29c-.43-1.29-.65-2.73-.65-4.34s.21-3.01.63-4.29c.42-1.27,1.03-2.36,1.82-3.27s1.76-1.61,2.91-2.11,2.45-.75,3.9-.75c1.56,0,2.91.27,4.06.8s2.09,1.26,2.83,2.18c.74.92,1.29,1.98,1.66,3.2.37,1.21.55,2.51.55,3.88v1.61h-13.28v.5c0,1.44.41,2.6,1.23,3.48.82.88,2.03,1.31,3.63,1.31,1.23,0,2.23-.25,3-.76s1.47-1.15,2.09-1.94l2.64,2.96c-.82,1.15-1.93,2.05-3.35,2.7-1.42.65-3.06.98-4.92.98Zm-.08-17.22c-1.3,0-2.33.43-3.1,1.3-.76.87-1.15,1.99-1.15,3.37v.31h8.19v-.34c0-1.38-.34-2.49-1.01-3.35-.68-.86-1.65-1.28-2.93-1.28Z"/>
  <path class="cls-1" d="m57.21,29.93c-1.68,0-2.92-.42-3.71-1.26-.79-.84-1.19-2.03-1.19-3.56V1.61h4.9v24.38h2.64v3.94h-2.64Z"/>
  <path class="cls-1" d="m68.19,29.93c-1.68,0-2.92-.42-3.71-1.26-.79-.84-1.19-2.03-1.19-3.56V1.61h4.9v24.38h2.64v3.94h-2.64Z"/>
  <path class="cls-1" d="m89.24,29.93c-1.07,0-1.92-.31-2.54-.94-.63-.63-1.02-1.46-1.17-2.51h-.23c-.33,1.3-1.01,2.28-2.03,2.93s-2.28.97-3.79.97c-2.04,0-3.61-.53-4.71-1.6s-1.64-2.49-1.64-4.27c0-2.06.74-3.59,2.22-4.6,1.48-1,3.58-1.51,6.32-1.51h3.41v-1.45c0-1.12-.3-1.99-.88-2.6-.59-.61-1.53-.92-2.83-.92-1.15,0-2.07.25-2.78.74-.7.5-1.3,1.09-1.78,1.78l-2.91-2.62c.74-1.15,1.72-2.08,2.95-2.79,1.22-.7,2.84-1.06,4.86-1.06,2.7,0,4.76.61,6.16,1.83,1.4,1.22,2.1,2.98,2.1,5.27v9.39h1.99v3.94h-2.72Zm-8.11-3.1c1.1,0,2.03-.24,2.79-.72.77-.48,1.15-1.19,1.15-2.13v-2.62h-3.14c-2.55,0-3.83.81-3.83,2.44v.64c0,.81.26,1.41.78,1.81s1.27.59,2.24.59Z"/>
  <path class="cls-1" d="m104.01,30.39c-1.48,0-2.8-.25-3.96-.74s-2.14-1.2-2.95-2.11-1.42-2-1.86-3.29c-.43-1.29-.65-2.73-.65-4.34s.21-3.01.63-4.29c.42-1.27,1.03-2.36,1.82-3.27.79-.91,1.76-1.61,2.91-2.11,1.15-.5,2.45-.75,3.9-.75,1.56,0,2.91.27,4.06.8,1.15.54,2.09,1.26,2.83,2.18.74.92,1.29,1.98,1.66,3.2s.55,2.51.55,3.88v1.61h-13.28v.5c0,1.44.4,2.6,1.22,3.48.82.88,2.03,1.31,3.63,1.31,1.22,0,2.23-.25,3.01-.76s1.47-1.15,2.08-1.94l2.64,2.96c-.82,1.15-1.93,2.05-3.35,2.7-1.42.65-3.06.98-4.92.98Zm-.07-17.22c-1.3,0-2.34.43-3.1,1.3-.77.87-1.15,1.99-1.15,3.37v.31h8.19v-.34c0-1.38-.34-2.49-1.01-3.35-.68-.86-1.65-1.28-2.93-1.28Z"/>
</svg>