<?xml version="1.0" encoding="UTF-8"?>
<svg id="Layer_1" data-name="Layer 1" xmlns="http://www.w3.org/2000/svg" viewBox="0 0 94.52 24">
  <defs>
    <style>
      .cls-1 {
        fill: #fff;
      }
    </style>
  </defs>
  <path class="cls-1" d="M0,1.34h4.76l5.71,10.88h.13L16.25,1.34h4.56v22.28h-3.99V7.63h-.13l-1.72,3.54-4.56,8.43-4.56-8.43-1.72-3.54h-.13v15.99H0V1.34Z"/>
  <path class="cls-1" d="M24.69,15.26c0-5.27,2.84-8.68,7.72-8.68,5.2,0,7.6,3.83,7.6,8.39v1.34h-11.07v.41c0,2.39,1.37,4.02,4.05,4.02,2.01,0,3.22-.96,4.25-2.27l2.2,2.46c-1.37,1.88-3.8,3.06-6.89,3.06-4.91,0-7.85-3.41-7.85-8.74ZM28.93,13.53v.25h6.83v-.29c0-2.3-1.18-3.86-3.29-3.86s-3.54,1.6-3.54,3.89Z"/>
  <path class="cls-1" d="M47.71,23.62c-2.78,0-4.09-1.47-4.09-4.02V0h4.09v20.36h2.2v3.26h-2.2Z"/>
  <path class="cls-1" d="M56.87,23.62c-2.78,0-4.09-1.47-4.09-4.02V0h4.09v20.36h2.2v3.26h-2.2Z"/>
  <path class="cls-1" d="M61.06,15.26c0-5.27,2.84-8.68,7.72-8.68,5.2,0,7.6,3.83,7.6,8.39v1.34h-11.08v.41c0,2.39,1.37,4.02,4.05,4.02,2.01,0,3.23-.96,4.24-2.27l2.2,2.46c-1.37,1.88-3.8,3.06-6.89,3.06-4.91,0-7.85-3.41-7.85-8.74ZM65.3,13.53v.25h6.83v-.29c0-2.3-1.18-3.86-3.29-3.86s-3.54,1.6-3.54,3.89Z"/>
  <path class="cls-1" d="M78.81,19.09c0-3.41,2.59-5.11,7.12-5.11h2.84v-1.21c0-1.85-.93-2.94-3.1-2.94-1.92,0-3,.96-3.8,2.11l-2.42-2.17c1.21-1.92,3.16-3.19,6.51-3.19,4.5,0,6.89,2.14,6.89,5.94v7.85h1.66v3.26h-2.27c-1.76,0-2.84-1.15-3.1-2.87h-.19c-.54,2.14-2.36,3.25-4.85,3.25-3.38,0-5.3-1.95-5.3-4.91ZM88.77,18.64v-2.2h-2.62c-2.14,0-3.19.73-3.19,2.04v.54c0,1.34.93,2.01,2.52,2.01,1.82,0,3.29-.83,3.29-2.39Z"/>
</svg>