<?xml version="1.0" encoding="UTF-8"?><svg id="Build_icon_here" xmlns="http://www.w3.org/2000/svg" viewBox="0 0 32 32"><path d="M28.5,8.21L16.5,1.28c-.31-.18-.69-.18-1,0L3.5,8.21c-.31.18-.5.51-.5.87v13.86c0,.36.19.69.5.87l12,6.93c.15.09.33.13.5.13s.35-.04.5-.13l12-6.93c.31-.18.5-.51.5-.87v-13.86c0-.36-.19-.69-.5-.87ZM16,3.3l10,5.77-2.07,1.2-5.43-3.14c-.15-.09-.33-.13-.5-.13s-.35.04-.5.13l-6,3.46c-.31.18-.5.51-.5.87v.49l-5-2.88,10-5.77ZM23,17.92l-5,2.89-1-.57v-3.65s1.48-.85,1.48-.85h0s4.52-2.61,4.52-2.61v4.8ZM16,14.85l-1.85-1.07h0l-1.16-.67v-1.07l5-2.89,3.93,2.27-3.45,1.99h0l-2.48,1.43ZM13,17.12v-1.7l.46.27h0l1.54.89v2.5s-2-1.16-2-1.16v-.8ZM5,10.8l6,3.46v3.41l-4.84,2.85h0l-1.16.67v-10.39ZM15,28.12l-9-5.2,1.35-.78h0s4.44-2.62,4.44-2.62l3.21,1.85v6.74ZM17,28.12v-5.59l.5.29c.15.09.33.13.5.13s.35-.04.5-.13l3.66-2.11,3.63,2.1.21.12-9,5.2ZM27,21.2l-.3-.18h0l-2.54-1.47.34-.19c.31-.18.5-.51.5-.87v-6.53l2-1.16v10.39Z"/></svg>